<svg xmlns="http://www.w3.org/2000/svg" xmlns:xlink="http://www.w3.org/1999/xlink" width="29px" height="27px">
    <path fill-rule="evenodd" fill="#fff" d="M27.000,27.000 L24.000,27.000 C22.895,27.000 22.000,26.105 22.000,25.000 L22.000,22.000 C22.000,20.895 22.895,20.000 24.000,20.000 L27.000,20.000 C28.105,20.000 29.000,20.895 29.000,22.000 L29.000,25.000 C29.000,26.105 28.105,27.000 27.000,27.000 ZM27.000,17.000 L24.000,17.000 C22.895,17.000 22.000,16.105 22.000,15.000 L22.000,11.999 C22.000,10.896 22.895,10.000 24.000,10.000 L27.000,10.000 C28.105,10.000 29.000,10.896 29.000,11.999 L29.000,15.000 C29.000,16.105 28.105,17.000 27.000,17.000 ZM27.000,7.000 L24.000,7.000 C22.895,7.000 22.000,6.105 22.000,5.000 L22.000,2.000 C22.000,0.896 22.895,0.000 24.000,0.000 L27.000,0.000 C28.105,0.000 29.000,0.896 29.000,2.000 L29.000,5.000 C29.000,6.105 28.105,7.000 27.000,7.000 ZM16.000,27.000 L13.000,27.000 C11.895,27.000 11.000,26.105 11.000,25.000 L11.000,22.000 C11.000,20.895 11.895,20.000 13.000,20.000 L16.000,20.000 C17.105,20.000 18.000,20.895 18.000,22.000 L18.000,25.000 C18.000,26.105 17.105,27.000 16.000,27.000 ZM16.000,17.000 L13.000,17.000 C11.895,17.000 11.000,16.105 11.000,15.000 L11.000,11.999 C11.000,10.896 11.895,10.000 13.000,10.000 L16.000,10.000 C17.105,10.000 18.000,10.896 18.000,11.999 L18.000,15.000 C18.000,16.105 17.105,17.000 16.000,17.000 ZM16.000,7.000 L13.000,7.000 C11.895,7.000 11.000,6.105 11.000,5.000 L11.000,2.000 C11.000,0.896 11.895,0.000 13.000,0.000 L16.000,0.000 C17.105,0.000 18.000,0.896 18.000,2.000 L18.000,5.000 C18.000,6.105 17.105,7.000 16.000,7.000 ZM5.000,27.000 L2.000,27.000 C0.895,27.000 -0.000,26.105 -0.000,25.000 L-0.000,22.000 C-0.000,20.895 0.895,20.000 2.000,20.000 L5.000,20.000 C6.105,20.000 7.000,20.895 7.000,22.000 L7.000,25.000 C7.000,26.105 6.105,27.000 5.000,27.000 ZM5.000,17.000 L2.000,17.000 C0.895,17.000 -0.000,16.105 -0.000,15.000 L-0.000,11.999 C-0.000,10.896 0.895,10.000 2.000,10.000 L5.000,10.000 C6.105,10.000 7.000,10.896 7.000,11.999 L7.000,15.000 C7.000,16.105 6.105,17.000 5.000,17.000 ZM5.000,7.000 L2.000,7.000 C0.895,7.000 -0.000,6.105 -0.000,5.000 L-0.000,2.000 C-0.000,0.896 0.895,0.000 2.000,0.000 L5.000,0.000 C6.105,0.000 7.000,0.896 7.000,2.000 L7.000,5.000 C7.000,6.105 6.105,7.000 5.000,7.000 Z"/>
</svg>