<svg version="1.1" xmlns="http://www.w3.org/2000/svg" xmlns:xlink="http://www.w3.org/1999/xlink" x="0px" y="0px" viewBox="-4148 3411.5 8 8" style="enable-background:new -4148 3411.5 8 8;" xml:space="preserve">
    <path d="M-4147.5,3412L-4147.5,3412c0.5-0.5,1.4-0.5,1.9,0l5.1,5.1c0.5,0.5,0.5,1.4,0,1.9l0,0c-0.5,0.5-1.4,0.5-1.9,0c0,0,0,0,0,0l-5.1-5.1C-4148.1,3413.4-4148.1,3412.5-4147.5,3412C-4147.5,3412-4147.5,3412-4147.5,3412z"/>
    <path d="M-4147.5,3417.1l5.1-5.1c0.5-0.5,1.4-0.5,1.9,0l0,0c0.5,0.5,0.5,1.4,0,1.9c0,0,0,0,0,0l-5.1,5.1c-0.5,0.5-1.4,0.5-1.9,0c0,0,0,0,0,0l0,0C-4148.1,3418.5-4148.1,3417.6-4147.5,3417.1L-4147.5,3417.1z"/>
</svg>