<?xml version="1.0" encoding="UTF-8" standalone="no"?>
<svg width="8px" height="9px" viewBox="0 0 8 9" version="1.1" xmlns="http://www.w3.org/2000/svg" xmlns:xlink="http://www.w3.org/1999/xlink">
    <path d="M4.2,4.9 L4.2,4.9 C4.4,4.7 4.8,4.7 5.1,4.9 L7.4,7.2 C7.6,7.4 7.6,7.8 7.4,8.1 L7.4,8.1 C7.2,8.3 6.8,8.3 6.5,8.1 L6.5,8.1 L4.2,5.8 C3.9,5.5 3.9,5.1 4.2,4.9 L4.2,4.9 L4.2,4.9 Z"></path>
    <path d="M2.9,6.2 C1.3,6.2 0.1,4.9 0.1,3.4 C0.1,1.9 1.4,0.6 2.9,0.6 C4.5,0.6 5.7,1.9 5.7,3.4 C5.7,4.9 4.5,6.2 2.9,6.2 L2.9,6.2 Z M2.9,1.5 C1.9,1.5 1.1,2.3 1.1,3.3 C1.1,4.3 1.9,5.1 2.9,5.1 C3.9,5.1 4.7,4.3 4.7,3.3 C4.7,2.3 3.9,1.5 2.9,1.5 L2.9,1.5 Z"></path>
</svg>