<svg xmlns="http://www.w3.org/2000/svg" width="17" height="20" viewBox="0 0 17 20">
  <defs>
    <style>
      .cls-1 {
        fill: #a5a8ad;
        fill-rule: evenodd;
      }
    </style>
  </defs>
  <path id="delete" class="cls-1" d="M5.99,14.9c0,0.459-.086,1.11-0.5,1.11s-0.5-.651-0.5-1.11V7.125c0-.459.086-1.111,0.5-1.111s0.5,0.652.5,1.111V14.9ZM9,14.9c0,0.459-.086,1.11-0.5,1.11S8,15.36,8,14.9V7.125c0-.459.086-1.111,0.5-1.111S9,6.666,9,7.125V14.9Zm3.012,0c0,0.459-.086,1.11-0.5,1.11s-0.5-.651-0.5-1.11V7.125c0-.459.086-1.111,0.5-1.111s0.5,0.652.5,1.111V14.9ZM17,2V4H0V2H5C5.72,2,6.4.715,6.4,0h4.2c0,0.716.679,2,1.4,2h5ZM14,6V18H3V6H1L1.067,20H15.933L16,6H14Z"/>
</svg>
