<svg xmlns="http://www.w3.org/2000/svg" xmlns:xlink="http://www.w3.org/1999/xlink" width="16px" height="15px">
    <path fill-rule="evenodd"  fill="rgb(118, 126, 137)" d="M12.988,11.988 L11.012,11.988 L11.012,10.011 L12.988,10.011 L12.988,11.988 ZM9.000,5.999 L7.000,5.999 L7.000,8.000 L9.000,8.000 L9.000,5.999 ZM13.000,5.999 L11.000,5.999 L11.012,7.989 L12.988,7.989 L13.000,5.999 ZM5.000,10.000 L3.000,10.000 L3.000,12.000 L5.000,12.000 L5.000,10.000 ZM9.000,10.000 L7.000,10.000 L7.000,12.000 L9.000,12.000 L9.000,10.000 ZM5.000,5.999 L3.000,5.999 L3.000,8.000 L5.000,8.000 L5.000,5.999 ZM16.000,2.000 L16.000,15.000 L0.000,15.000 L0.000,1.990 L2.000,1.990 L2.000,2.000 C2.000,2.736 2.598,3.332 3.333,3.332 C4.069,3.332 5.000,2.736 5.000,2.000 L5.011,1.984 L11.000,2.000 L11.000,2.000 C11.000,2.736 11.931,3.332 12.667,3.332 C13.402,3.332 14.000,2.736 14.000,2.000 L14.000,2.000 L16.000,2.000 ZM14.000,5.000 L2.000,5.000 L2.000,13.000 L14.000,13.000 L14.000,5.000 ZM12.992,2.000 L12.992,0.666 C12.992,0.298 12.770,0.000 12.496,0.000 C12.222,0.000 12.000,0.298 12.000,0.666 L12.000,2.000 M3.000,2.000 L3.000,1.000 C3.000,0.632 2.965,0.000 3.333,0.000 C3.702,0.000 4.000,0.632 4.000,1.000 L4.000,2.000 "/>
</svg>